<mxfile host="app.diagrams.net" modified="2024-05-19T13:04:31.907Z" agent="Mozilla/5.0 (X11; Linux x86_64; rv:125.0) Gecko/20100101 Firefox/125.0" etag="YlC3BAp-8DgfgnsZR-q1" version="24.4.4" type="device">
  <diagram name="Page-1" id="mB9d-egOU8m11RhMc7sI">
    <mxGraphModel dx="794" dy="1138" grid="1" gridSize="10" guides="1" tooltips="1" connect="1" arrows="1" fold="1" page="1" pageScale="1" pageWidth="850" pageHeight="1100" math="0" shadow="0">
      <root>
        <mxCell id="0" />
        <mxCell id="1" parent="0" />
        <mxCell id="d3ZvluwDNpQe7bq64WIG-3" value="" style="edgeStyle=orthogonalEdgeStyle;rounded=0;orthogonalLoop=1;jettySize=auto;html=1;" edge="1" parent="1" source="d3ZvluwDNpQe7bq64WIG-1" target="d3ZvluwDNpQe7bq64WIG-2">
          <mxGeometry relative="1" as="geometry" />
        </mxCell>
        <mxCell id="d3ZvluwDNpQe7bq64WIG-1" value="Start" style="ellipse;whiteSpace=wrap;html=1;aspect=fixed;" vertex="1" parent="1">
          <mxGeometry x="370" y="550" width="80" height="80" as="geometry" />
        </mxCell>
        <mxCell id="d3ZvluwDNpQe7bq64WIG-5" value="" style="edgeStyle=orthogonalEdgeStyle;rounded=0;orthogonalLoop=1;jettySize=auto;html=1;" edge="1" parent="1" source="d3ZvluwDNpQe7bq64WIG-2" target="d3ZvluwDNpQe7bq64WIG-4">
          <mxGeometry relative="1" as="geometry" />
        </mxCell>
        <mxCell id="d3ZvluwDNpQe7bq64WIG-2" value="Load Data" style="whiteSpace=wrap;html=1;" vertex="1" parent="1">
          <mxGeometry x="350" y="670" width="120" height="60" as="geometry" />
        </mxCell>
        <mxCell id="d3ZvluwDNpQe7bq64WIG-7" value="" style="edgeStyle=orthogonalEdgeStyle;rounded=0;orthogonalLoop=1;jettySize=auto;html=1;" edge="1" parent="1" source="d3ZvluwDNpQe7bq64WIG-4" target="d3ZvluwDNpQe7bq64WIG-6">
          <mxGeometry relative="1" as="geometry" />
        </mxCell>
        <mxCell id="d3ZvluwDNpQe7bq64WIG-23" value="YES" style="edgeLabel;html=1;align=center;verticalAlign=middle;resizable=0;points=[];" vertex="1" connectable="0" parent="d3ZvluwDNpQe7bq64WIG-7">
          <mxGeometry x="-0.08" y="1" relative="1" as="geometry">
            <mxPoint as="offset" />
          </mxGeometry>
        </mxCell>
        <mxCell id="d3ZvluwDNpQe7bq64WIG-21" style="edgeStyle=orthogonalEdgeStyle;rounded=0;orthogonalLoop=1;jettySize=auto;html=1;exitX=0;exitY=0.5;exitDx=0;exitDy=0;entryX=0.5;entryY=0;entryDx=0;entryDy=0;" edge="1" parent="1" source="d3ZvluwDNpQe7bq64WIG-4" target="d3ZvluwDNpQe7bq64WIG-15">
          <mxGeometry relative="1" as="geometry" />
        </mxCell>
        <mxCell id="d3ZvluwDNpQe7bq64WIG-22" value="NO" style="edgeLabel;html=1;align=center;verticalAlign=middle;resizable=0;points=[];" vertex="1" connectable="0" parent="d3ZvluwDNpQe7bq64WIG-21">
          <mxGeometry x="-0.7306" y="4" relative="1" as="geometry">
            <mxPoint as="offset" />
          </mxGeometry>
        </mxCell>
        <mxCell id="d3ZvluwDNpQe7bq64WIG-4" value="Device&lt;br&gt;Desktop" style="rhombus;whiteSpace=wrap;html=1;" vertex="1" parent="1">
          <mxGeometry x="370" y="770" width="80" height="80" as="geometry" />
        </mxCell>
        <mxCell id="d3ZvluwDNpQe7bq64WIG-9" value="" style="edgeStyle=orthogonalEdgeStyle;rounded=0;orthogonalLoop=1;jettySize=auto;html=1;" edge="1" parent="1" source="d3ZvluwDNpQe7bq64WIG-6" target="d3ZvluwDNpQe7bq64WIG-8">
          <mxGeometry relative="1" as="geometry" />
        </mxCell>
        <mxCell id="d3ZvluwDNpQe7bq64WIG-26" value="NO" style="edgeLabel;html=1;align=center;verticalAlign=middle;resizable=0;points=[];" vertex="1" connectable="0" parent="d3ZvluwDNpQe7bq64WIG-9">
          <mxGeometry x="-0.36" y="3" relative="1" as="geometry">
            <mxPoint as="offset" />
          </mxGeometry>
        </mxCell>
        <mxCell id="d3ZvluwDNpQe7bq64WIG-24" style="edgeStyle=orthogonalEdgeStyle;rounded=0;orthogonalLoop=1;jettySize=auto;html=1;" edge="1" parent="1" source="d3ZvluwDNpQe7bq64WIG-6">
          <mxGeometry relative="1" as="geometry">
            <mxPoint x="230" y="940" as="targetPoint" />
          </mxGeometry>
        </mxCell>
        <mxCell id="d3ZvluwDNpQe7bq64WIG-25" value="YES" style="edgeLabel;html=1;align=center;verticalAlign=middle;resizable=0;points=[];" vertex="1" connectable="0" parent="d3ZvluwDNpQe7bq64WIG-24">
          <mxGeometry x="-0.0178" relative="1" as="geometry">
            <mxPoint as="offset" />
          </mxGeometry>
        </mxCell>
        <mxCell id="d3ZvluwDNpQe7bq64WIG-6" value="&lt;div&gt;Null&lt;/div&gt;&lt;div&gt;Value&lt;br&gt;&lt;/div&gt;" style="rhombus;whiteSpace=wrap;html=1;" vertex="1" parent="1">
          <mxGeometry x="370" y="900" width="80" height="80" as="geometry" />
        </mxCell>
        <mxCell id="d3ZvluwDNpQe7bq64WIG-11" value="" style="edgeStyle=orthogonalEdgeStyle;rounded=0;orthogonalLoop=1;jettySize=auto;html=1;" edge="1" parent="1" source="d3ZvluwDNpQe7bq64WIG-8" target="d3ZvluwDNpQe7bq64WIG-10">
          <mxGeometry relative="1" as="geometry" />
        </mxCell>
        <mxCell id="d3ZvluwDNpQe7bq64WIG-29" value="YES" style="edgeLabel;html=1;align=center;verticalAlign=middle;resizable=0;points=[];" vertex="1" connectable="0" parent="d3ZvluwDNpQe7bq64WIG-11">
          <mxGeometry x="-0.08" y="2" relative="1" as="geometry">
            <mxPoint as="offset" />
          </mxGeometry>
        </mxCell>
        <mxCell id="d3ZvluwDNpQe7bq64WIG-27" style="edgeStyle=orthogonalEdgeStyle;rounded=0;orthogonalLoop=1;jettySize=auto;html=1;" edge="1" parent="1" source="d3ZvluwDNpQe7bq64WIG-8">
          <mxGeometry relative="1" as="geometry">
            <mxPoint x="230" y="1070" as="targetPoint" />
          </mxGeometry>
        </mxCell>
        <mxCell id="d3ZvluwDNpQe7bq64WIG-28" value="NO" style="edgeLabel;html=1;align=center;verticalAlign=middle;resizable=0;points=[];" vertex="1" connectable="0" parent="d3ZvluwDNpQe7bq64WIG-27">
          <mxGeometry x="0.0246" y="3" relative="1" as="geometry">
            <mxPoint as="offset" />
          </mxGeometry>
        </mxCell>
        <mxCell id="d3ZvluwDNpQe7bq64WIG-8" value="Relevant&lt;br&gt;Feature" style="rhombus;whiteSpace=wrap;html=1;" vertex="1" parent="1">
          <mxGeometry x="370" y="1030" width="80" height="80" as="geometry" />
        </mxCell>
        <mxCell id="d3ZvluwDNpQe7bq64WIG-13" value="" style="edgeStyle=orthogonalEdgeStyle;rounded=0;orthogonalLoop=1;jettySize=auto;html=1;" edge="1" parent="1" source="d3ZvluwDNpQe7bq64WIG-10" target="d3ZvluwDNpQe7bq64WIG-12">
          <mxGeometry relative="1" as="geometry" />
        </mxCell>
        <mxCell id="d3ZvluwDNpQe7bq64WIG-10" value="Filter Data" style="whiteSpace=wrap;html=1;" vertex="1" parent="1">
          <mxGeometry x="350" y="1160" width="120" height="60" as="geometry" />
        </mxCell>
        <mxCell id="d3ZvluwDNpQe7bq64WIG-12" value="End" style="ellipse;whiteSpace=wrap;html=1;" vertex="1" parent="1">
          <mxGeometry x="370" y="1270" width="80" height="80" as="geometry" />
        </mxCell>
        <mxCell id="d3ZvluwDNpQe7bq64WIG-17" style="edgeStyle=orthogonalEdgeStyle;rounded=0;orthogonalLoop=1;jettySize=auto;html=1;entryX=0;entryY=0.5;entryDx=0;entryDy=0;" edge="1" parent="1" source="d3ZvluwDNpQe7bq64WIG-15" target="d3ZvluwDNpQe7bq64WIG-10">
          <mxGeometry relative="1" as="geometry" />
        </mxCell>
        <mxCell id="d3ZvluwDNpQe7bq64WIG-15" value="Drop Data" style="whiteSpace=wrap;html=1;" vertex="1" parent="1">
          <mxGeometry x="170" y="1160" width="120" height="60" as="geometry" />
        </mxCell>
      </root>
    </mxGraphModel>
  </diagram>
</mxfile>
